<svg width="13" height="21" viewBox="0 0 13 21" fill="none" xmlns="http://www.w3.org/2000/svg">
<g id="driver">
<circle id="head" cx="6.35249" cy="6.35249" r="6.35249" fill="#EF5C5C"/>
<ellipse id="eye" cx="8.62125" cy="4.99125" rx="1.36124" ry="1.36124" fill="white"/>
<circle id="pupil" cx="9.06503" cy="5.07501" r="0.5" transform="rotate(-180 9.06503 5.07501)" fill="#AF5400"/>
<g id="mouth">
<mask id="path-4-inside-1" fill="white">
<path d="M7.56503 9.58976C7.56503 9.58976 10.8702 9.72101 11.3659 9.58976C11.8617 9.4585 11.3085 10.2359 11.0354 10.6398C10.7893 11.0039 10.3744 11.6898 10.0439 11.5586C9.71338 11.4273 8.07488 10.9394 7.56503 9.58976Z"/>
</mask>
<path d="M7.56503 9.58976C7.56503 9.58976 10.8702 9.72101 11.3659 9.58976C11.8617 9.4585 11.3085 10.2359 11.0354 10.6398C10.7893 11.0039 10.3744 11.6898 10.0439 11.5586C9.71338 11.4273 8.07488 10.9394 7.56503 9.58976Z" stroke="black" stroke-width="56" mask="url(#path-4-inside-1)"/>
</g>
<path id="body" d="M4 15C4 13.8954 4.89543 13 6 13H7C8.10457 13 9 13.8954 9 15V21H4V15Z" fill="#2E42F1"/>
</g>
</svg>
