<svg width="23" height="19" viewBox="0 0 23 19" fill="none" xmlns="http://www.w3.org/2000/svg">
<g id="Smoke">
<path id="Vector" d="M20.35 10.3377V10.175C20.35 8.60798 19.4343 7.22425 18.0912 6.55263C18.2336 6.06423 18.315 5.5759 18.315 5.0875C18.315 2.2792 16.0358 0 13.2275 0H5.0875C2.2792 0 0 2.2792 0 5.0875C0 7.8958 2.2792 10.175 5.0875 10.175H6.105C6.105 12.4134 7.93657 14.245 10.175 14.245H12.3932C12.8002 15.4252 13.9397 16.28 15.2625 16.28H18.9051L20.6553 18.0097C20.8384 18.2133 21.103 18.315 21.3675 18.315C21.4896 18.315 21.6321 18.2947 21.7542 18.2335C22.1408 18.0708 22.385 17.7045 22.385 17.2975V13.2275C22.385 11.9047 21.5304 10.7651 20.35 10.3377Z" fill="#8F97AE"/>
<path id="Vector_2" d="M22.385 13.2275V17.2975C22.385 17.7045 22.1408 18.0708 21.7542 18.2335C21.6321 18.2947 21.4896 18.315 21.3675 18.315C21.103 18.315 20.8384 18.2133 20.6553 18.0097L18.9051 16.28H15.2625C13.9397 16.28 12.8001 15.4252 12.3932 14.245H11.1925V0H13.2275C16.0358 0 18.315 2.2792 18.315 5.0875C18.315 5.5759 18.2337 6.06423 18.0912 6.55263C19.4343 7.22425 20.35 8.60798 20.35 10.175V10.3377C21.5304 10.7651 22.385 11.9047 22.385 13.2275Z" fill="#7A869A"/>
</g>
</svg>
